<svg xmlns="http://www.w3.org/2000/svg" viewBox="0 0 960 720" role="img" aria-label="workspace scheduling interface illustration">
  <defs>
    <linearGradient id="bg" x1="118" y1="54" x2="842" y2="674" gradientUnits="userSpaceOnUse">
      <stop stop-color="#EAF6FF"/>
      <stop offset=".48" stop-color="#F8FBFF"/>
      <stop offset="1" stop-color="#D9F7F1"/>
    </linearGradient>
    <linearGradient id="glass" x1="202" y1="128" x2="751" y2="597" gradientUnits="userSpaceOnUse">
      <stop stop-color="#FFFFFF" stop-opacity=".92"/>
      <stop offset="1" stop-color="#F3FAFF" stop-opacity=".78"/>
    </linearGradient>
    <linearGradient id="blue" x1="276" y1="206" x2="548" y2="513" gradientUnits="userSpaceOnUse">
      <stop stop-color="#2563EB"/>
      <stop offset="1" stop-color="#0891B2"/>
    </linearGradient>
    <linearGradient id="mint" x1="507" y1="207" x2="682" y2="469" gradientUnits="userSpaceOnUse">
      <stop stop-color="#34D399"/>
      <stop offset="1" stop-color="#06B6D4"/>
    </linearGradient>
    <filter id="shadow" x="60" y="50" width="840" height="630" filterUnits="userSpaceOnUse" color-interpolation-filters="sRGB">
      <feDropShadow dx="0" dy="24" stdDeviation="28" flood-color="#0F172A" flood-opacity=".16"/>
    </filter>
    <filter id="soft" x="150" y="100" width="660" height="520" filterUnits="userSpaceOnUse" color-interpolation-filters="sRGB">
      <feDropShadow dx="0" dy="16" stdDeviation="18" flood-color="#2563EB" flood-opacity=".16"/>
    </filter>
  </defs>
  <rect width="960" height="720" rx="42" fill="url(#bg)"/>
  <path d="M122 578c95-55 200-60 316-13 102 41 219 54 377-26" fill="none" stroke="#BFDBFE" stroke-width="2" opacity=".65"/>
  <g filter="url(#shadow)">
    <rect x="154" y="100" width="652" height="500" rx="34" fill="url(#glass)" stroke="#FFFFFF" stroke-width="2"/>
  </g>
  <g opacity=".72">
    <rect x="196" y="146" width="220" height="42" rx="14" fill="#E0F2FE"/>
    <rect x="444" y="146" width="120" height="42" rx="14" fill="#ECFDF5"/>
    <rect x="588" y="146" width="172" height="42" rx="14" fill="#EFF6FF"/>
  </g>
  <g filter="url(#soft)">
    <rect x="196" y="226" width="252" height="230" rx="24" fill="#FFFFFF" stroke="#E2E8F0"/>
    <rect x="236" y="266" width="88" height="24" rx="12" fill="#DBEAFE"/>
    <rect x="236" y="314" width="172" height="16" rx="8" fill="#CBD5E1"/>
    <rect x="236" y="350" width="132" height="16" rx="8" fill="#E2E8F0"/>
    <rect x="236" y="392" width="154" height="34" rx="12" fill="url(#blue)"/>
    <path d="M198 486h250v-45c-29 14-58 20-88 18-45-2-77-30-121-27-17 1-30 6-41 14v40Z" fill="#DBEAFE"/>
  </g>
  <g filter="url(#soft)">
    <rect x="492" y="226" width="272" height="230" rx="24" fill="#FFFFFF" stroke="#E2E8F0"/>
    <rect x="530" y="268" width="190" height="132" rx="22" fill="#F8FAFC"/>
    <path d="M552 363c32-45 72-48 119-12 20 15 37 18 51 9v40H552v-37Z" fill="url(#mint)" opacity=".82"/>
    <rect x="552" y="292" width="132" height="14" rx="7" fill="#94A3B8" opacity=".58"/>
    <rect x="552" y="320" width="88" height="14" rx="7" fill="#CBD5E1"/>
    <rect x="530" y="424" width="70" height="14" rx="7" fill="#BFDBFE"/>
    <rect x="616" y="424" width="104" height="14" rx="7" fill="#A7F3D0"/>
  </g>
  <g>
    <path d="M282 544h392" stroke="#CBD5E1" stroke-width="16" stroke-linecap="round"/>
    <path d="M334 484h288c20 0 36 16 36 36v18H298v-18c0-20 16-36 36-36Z" fill="#0F172A"/>
    <path d="M358 505h240" stroke="#334155" stroke-width="14" stroke-linecap="round"/>
    <rect x="350" y="520" width="32" height="62" rx="12" fill="#1E293B"/>
    <rect x="576" y="520" width="32" height="62" rx="12" fill="#1E293B"/>
    <rect x="356" y="580" width="20" height="20" rx="7" fill="#38BDF8"/>
    <rect x="582" y="580" width="20" height="20" rx="7" fill="#34D399"/>
  </g>
  <g>
    <rect x="422" y="304" width="118" height="86" rx="20" fill="#0F172A"/>
    <rect x="438" y="320" width="86" height="12" rx="6" fill="#38BDF8"/>
    <rect x="438" y="350" width="58" height="12" rx="6" fill="#94A3B8"/>
    <circle cx="519" cy="356" r="9" fill="#34D399"/>
  </g>
  <g opacity=".76">
    <circle cx="224" cy="218" r="11" fill="#2563EB"/>
    <circle cx="260" cy="218" r="11" fill="#0891B2"/>
    <circle cx="296" cy="218" r="11" fill="#22C55E"/>
  </g>
</svg>
